<?xml version="1.0" encoding="utf-8"?>
<!-- Generator: Adobe Illustrator 21.0.2, SVG Export Plug-In . SVG Version: 6.00 Build 0)  -->
<svg version="1.1" id="Layer_1" xmlns="http://www.w3.org/2000/svg" xmlns:xlink="http://www.w3.org/1999/xlink" x="0px" y="0px"
	 viewBox="0 0 2800 2800" style="enable-background:new 0 0 2800 2800;" xml:space="preserve">
<style type="text/css">
	.st0{clip-path:url(#SVGID_2_);fill:#DDB385;}
	.st1{fill:#361614;}
	.st2{fill:#DDB385;}
	.st3{fill:#BE1E2D;}
	.st4{fill:#633837;}
</style>
<g>
	<g>
		<defs>
			<rect id="SVGID_1_" transform="matrix(6.123234e-17 -1 1 6.123234e-17 0 2800)" width="2800" height="2800"/>
		</defs>
		<clipPath id="SVGID_2_">
			<use xlink:href="#SVGID_1_"  style="overflow:visible;"/>
		</clipPath>
		<rect class="st0" width="2800" height="2800"/>
		<path class="st0" d="M0,2800h2800H0z"/>
	</g>
</g>
<g>
	<path class="st1" d="M175.2,61.3c30.4,0,59.1,11.9,80.6,33.4c21.5,21.5,33.4,50.1,33.4,80.6s-11.9,59.1-33.4,80.6
		c-21.5,21.5-50.1,33.4-80.6,33.4c-30.4,0-59.1-11.9-80.6-33.4c-21.5-21.5-33.4-50.1-33.4-80.6s11.9-59.1,33.4-80.6
		C116.1,73.2,144.7,61.3,175.2,61.3 M175.2,41.3c-34.3,0-68.6,13.1-94.7,39.2c-52.3,52.3-52.3,137.1,0,189.5
		c26.2,26.2,60.4,39.2,94.7,39.2s68.6-13.1,94.7-39.2c52.3-52.3,52.3-137.1,0-189.5C243.7,54.4,209.5,41.3,175.2,41.3L175.2,41.3z"
		/>
</g>
<g>
	<circle class="st2" cx="1400" cy="1400" r="502.6"/>
	<path class="st1" d="M1400,1907.6c-68.5,0-135-13.4-197.6-39.9c-60.4-25.6-114.7-62.2-161.3-108.8s-83.2-100.9-108.8-161.3
		c-26.5-62.6-39.9-129.1-39.9-197.6c0-68.5,13.4-135,39.9-197.6c25.6-60.4,62.2-114.7,108.8-161.3s100.9-83.2,161.3-108.8
		c62.6-26.5,129-39.9,197.6-39.9c68.5,0,135,13.4,197.6,39.9c60.4,25.6,114.7,62.2,161.3,108.8s83.2,100.9,108.8,161.3
		c26.5,62.6,39.9,129,39.9,197.6c0,68.5-13.4,135-39.9,197.6c-25.6,60.4-62.2,114.7-108.8,161.3s-100.9,83.2-161.3,108.8
		C1535,1894.1,1468.5,1907.6,1400,1907.6z M1400,902.4c-67.2,0-132.3,13.2-193.7,39.1c-59.2,25.1-112.5,60.9-158.2,106.6
		c-45.7,45.7-81.6,98.9-106.6,158.2c-25.9,61.3-39.1,126.5-39.1,193.7c0,67.2,13.2,132.3,39.1,193.7
		c25.1,59.2,60.9,112.5,106.6,158.2c45.7,45.7,98.9,81.6,158.2,106.6c61.3,25.9,126.5,39.1,193.7,39.1c67.2,0,132.3-13.2,193.7-39.1
		c59.2-25.1,112.5-60.9,158.2-106.6s81.6-98.9,106.6-158.2c25.9-61.3,39.1-126.5,39.1-193.7c0-67.2-13.2-132.3-39.1-193.7
		c-25.1-59.2-60.9-112.5-106.6-158.2c-45.7-45.7-98.9-81.6-158.2-106.6C1532.3,915.6,1467.2,902.4,1400,902.4z"/>
</g>
<g>
	<path class="st1" d="M1385,1778.3c-10.1-0.4-20.4-1.2-30.4-2.4l1.2-9.9c9.8,1.2,19.7,2,29.6,2.3L1385,1778.3z M1415.5,1778.3
		l-0.4-10c9.9-0.4,19.8-1.2,29.6-2.4l1.2,9.9C1435.8,1777.1,1425.6,1777.9,1415.5,1778.3z M1324.5,1771.1c-9.9-2-19.9-4.4-29.6-7.3
		l2.8-9.6c9.5,2.7,19.2,5.1,28.8,7.1L1324.5,1771.1z M1475.9,1771l-2-9.8c9.7-2,19.4-4.4,28.8-7.1l2.8,9.6
		C1495.8,1766.5,1485.8,1769,1475.9,1771z M1266,1754.2c-9.5-3.6-18.9-7.6-28.1-11.9l4.3-9c8.9,4.2,18.1,8.1,27.3,11.6L1266,1754.2z
		 M1534.4,1754.1l-3.6-9.3c9.2-3.5,18.4-7.4,27.3-11.6l4.3,9C1553.3,1746.4,1543.9,1750.5,1534.4,1754.1z M1210.9,1728.1
		c-8.8-5.1-17.4-10.5-25.8-16.3l5.7-8.2c8.1,5.6,16.6,10.9,25.1,15.9L1210.9,1728.1z M1589.4,1727.9l-5-8.7
		c8.5-4.9,17-10.3,25.1-15.9l5.7,8.2C1606.8,1717.3,1598.2,1722.8,1589.4,1727.9z M1160.7,1693.5c-7.8-6.4-15.5-13.2-22.8-20.2
		l6.9-7.2c7.1,6.8,14.6,13.4,22.2,19.7L1160.7,1693.5z M1639.5,1693.2l-6.3-7.7c7.6-6.2,15.1-12.9,22.2-19.7l6.9,7.2
		C1655,1680,1647.3,1686.8,1639.5,1693.2z M1116.8,1651.3c-6.7-7.6-13.2-15.5-19.3-23.6l8-6c5.9,7.9,12.3,15.6,18.8,23
		L1116.8,1651.3z M1683.4,1651l-7.5-6.6c6.5-7.4,12.9-15.1,18.8-23l8,6C1696.6,1635.5,1690.1,1643.5,1683.4,1651z M1080.1,1602.6
		c-5.4-8.5-10.6-17.4-15.3-26.4l8.8-4.7c4.6,8.7,9.6,17.3,14.9,25.7L1080.1,1602.6z M1720.1,1602.3l-8.4-5.4
		c5.3-8.3,10.3-17,14.9-25.7l8.9,4.7C1730.6,1584.9,1725.5,1593.8,1720.1,1602.3z M1051.7,1548.8c-4-9.3-7.6-18.9-10.8-28.5l9.5-3.2
		c3.1,9.3,6.7,18.7,10.5,27.7L1051.7,1548.8z M1748.4,1548.4l-9.2-3.9c3.9-9.1,7.4-18.4,10.5-27.8l9.5,3.2
		C1756,1529.5,1752.4,1539.1,1748.4,1548.4z M1032.4,1491c-2.4-9.8-4.5-19.9-6.1-29.9l9.9-1.6c1.6,9.7,3.6,19.5,5.9,29.1
		L1032.4,1491z M1767.7,1490.6l-9.7-2.4c2.3-9.6,4.3-19.3,5.9-29.1l9.9,1.6C1772.2,1470.7,1770.1,1480.8,1767.7,1490.6z
		 M1022.6,1430.9c-0.8-10.1-1.2-20.3-1.2-30.5l10,0c0,9.9,0.4,19.9,1.2,29.7L1022.6,1430.9z M1777.4,1430.4l-10-0.8
		c0.8-9.8,1.2-19.8,1.2-29.7l0-0.9l10,0l0,0.9C1778.6,1410.1,1778.2,1420.4,1777.4,1430.4z M1032.5,1370.8l-10-0.8
		c0.8-10.1,2-20.3,3.6-30.3l9.9,1.6C1034.5,1351,1033.3,1361,1032.5,1370.8z M1767.4,1369.5c-0.8-9.8-2-19.7-3.6-29.5l9.9-1.6
		c1.6,10,2.9,20.2,3.7,30.3L1767.4,1369.5z M1041.9,1312.2l-9.7-2.4c2.4-9.8,5.2-19.7,8.4-29.3l9.5,3.2
		C1047,1293.1,1044.2,1302.7,1041.9,1312.2z M1757.8,1310.9c-2.4-9.6-5.2-19.2-8.3-28.5l9.5-3.2c3.2,9.6,6.1,19.4,8.5,29.3
		L1757.8,1310.9z M1060.6,1255.9l-9.2-3.9c4-9.3,8.4-18.6,13.1-27.6l8.9,4.6C1068.7,1237.8,1064.5,1246.9,1060.6,1255.9z
		 M1738.9,1254.7c-3.9-9-8.2-18-12.8-26.8l8.8-4.7c4.7,8.9,9.1,18.2,13.1,27.5L1738.9,1254.7z M1088.1,1203.4l-8.5-5.3
		c5.4-8.6,11.2-17,17.3-25.1l8,6C1099.1,1186.8,1093.4,1195,1088.1,1203.4z M1711.2,1202.3c-5.3-8.3-11-16.5-16.9-24.4l8-6
		c6.1,8.1,12,16.5,17.4,25L1711.2,1202.3z M1123.8,1155.9l-7.5-6.6c6.7-7.6,13.8-15,21.1-22l6.9,7.2
		C1137.2,1141.3,1130.3,1148.5,1123.8,1155.9z M1675.4,1155c-6.6-7.4-13.5-14.5-20.6-21.4l6.9-7.2c7.3,7,14.4,14.4,21.2,21.9
		L1675.4,1155z M1166.5,1114.8l-6.3-7.7c7.8-6.4,16-12.6,24.3-18.4l5.7,8.2C1182.1,1102.5,1174.1,1108.5,1166.5,1114.8z
		 M1632.6,1114c-7.6-6.2-15.6-12.2-23.8-17.8l5.7-8.2c8.3,5.7,16.5,11.9,24.4,18.3L1632.6,1114z M1215.2,1081l-5-8.6
		c8.8-5.1,17.8-9.9,26.9-14.2l4.3,9C1232.6,1071.4,1223.7,1076,1215.2,1081z M1583.7,1080.4c-8.6-4.9-17.4-9.6-26.3-13.8l4.3-9
		c9.1,4.3,18.2,9.1,27,14.1L1583.7,1080.4z M1268.7,1055.5l-3.6-9.3c9.5-3.6,19.2-6.9,28.9-9.7l2.8,9.6
		C1287.4,1048.8,1277.9,1051.9,1268.7,1055.5z M1530.1,1055c-9.2-3.5-18.7-6.6-28.2-9.3l2.8-9.6c9.7,2.8,19.5,6,28.9,9.6
		L1530.1,1055z M1325.6,1038.9l-2-9.8c9.9-2,20-3.7,30.1-4.9l1.2,9.9C1345.1,1035.3,1335.3,1036.9,1325.6,1038.9z M1473.1,1038.6
		c-9.6-1.9-19.5-3.5-29.3-4.7l1.2-9.9c10.1,1.2,20.2,2.8,30.1,4.8L1473.1,1038.6z M1384.5,1031.7l-0.4-10
		c10.1-0.4,20.4-0.4,30.5-0.1l-0.4,10C1404.4,1031.3,1394.3,1031.3,1384.5,1031.7z"/>
</g>
<g>
	<path class="st1" d="M1400,1595.8c-108,0-195.8-87.8-195.8-195.8c0-108,87.8-195.8,195.8-195.8c108,0,195.8,87.8,195.8,195.8
		C1595.8,1508,1508,1595.8,1400,1595.8z M1400,1214.2c-102.4,0-185.8,83.3-185.8,185.8c0,102.4,83.3,185.8,185.8,185.8
		c102.4,0,185.8-83.3,185.8-185.8C1585.8,1297.6,1502.4,1214.2,1400,1214.2z"/>
</g>
<g>
	<path class="st1" d="M1400,1618.3c-58.3,0-113.1-22.7-154.4-63.9c-41.2-41.2-63.9-96.1-63.9-154.4s22.7-113.1,63.9-154.4
		c41.2-41.2,96.1-63.9,154.4-63.9s113.1,22.7,154.4,63.9c41.2,41.2,63.9,96.1,63.9,154.4s-22.7,113.1-63.9,154.4
		S1458.3,1618.3,1400,1618.3z M1400,1191.7c-114.9,0-208.3,93.5-208.3,208.3s93.5,208.3,208.3,208.3s208.3-93.5,208.3-208.3
		S1514.9,1191.7,1400,1191.7z"/>
</g>
<g>
	<path class="st1" d="M1400,1476.8c-42.4,0-76.8-34.5-76.8-76.8s34.5-76.8,76.8-76.8s76.8,34.5,76.8,76.8S1442.4,1476.8,1400,1476.8
		z M1400,1333.2c-36.8,0-66.8,30-66.8,66.8c0,36.8,30,66.8,66.8,66.8c36.8,0,66.8-30,66.8-66.8
		C1466.8,1363.2,1436.8,1333.2,1400,1333.2z"/>
</g>
<g>
	<g>
		<path class="st2" d="M1400,1328.2c31.9,0,58.9,20.8,68.3,49.6L1400,946.4l-68.3,431.4C1341.1,1349,1368.1,1328.2,1400,1328.2z"/>
		<path class="st1" d="M1336.5,1379.3l-9.7-2.3l73.2-462.6l73.2,462.6l-9.7,2.3c-9-27.6-34.5-46.2-63.5-46.2
			C1371,1333.2,1345.4,1351.7,1336.5,1379.3z M1400,978.4l-58.9,372.3c14.3-17.1,35.6-27.5,58.9-27.5c23.3,0,44.7,10.4,58.9,27.5
			L1400,978.4z"/>
	</g>
	<g>
		<path class="st1" d="M1468.3,1377.8L1400,946.4v381.8C1431.9,1328.2,1458.9,1349,1468.3,1377.8z"/>
	</g>
</g>
<g>
	<g>
		<path class="st2" d="M1400,1471.8c-31.9,0-58.9-20.8-68.3-49.6l68.3,431.4l68.3-431.4C1458.9,1451,1431.9,1471.8,1400,1471.8z"/>
		<path class="st1" d="M1400,1885.6l-73.2-462.6l9.7-2.3c9,27.6,34.5,46.2,63.5,46.2c29,0,54.6-18.5,63.5-46.2l9.7,2.3L1400,1885.6z
			 M1341.1,1449.3l58.9,372.3l58.9-372.3c-14.3,17.1-35.6,27.5-58.9,27.5C1376.7,1476.8,1355.3,1466.4,1341.1,1449.3z"/>
	</g>
	<g>
		<path class="st1" d="M1331.7,1422.2l68.3,431.4v-381.8C1368.1,1471.8,1341.1,1451,1331.7,1422.2z"/>
	</g>
</g>
<g>
	<g>
		<path class="st2" d="M1328.2,1400c0-31.9,20.8-58.9,49.6-68.3L946.4,1400l431.4,68.3C1349,1458.9,1328.2,1431.9,1328.2,1400z"/>
		<path class="st1" d="M1377,1473.2L914.4,1400l462.6-73.2l2.3,9.7c-27.6,9-46.2,34.5-46.2,63.5c0,29,18.5,54.6,46.2,63.5
			L1377,1473.2z M978.4,1400l372.3,58.9c-17.1-14.3-27.5-35.6-27.5-58.9c0-23.3,10.4-44.7,27.5-58.9L978.4,1400z"/>
	</g>
	<g>
		<path class="st1" d="M1377.8,1331.7L946.4,1400h381.8C1328.2,1368.1,1349,1341.1,1377.8,1331.7z"/>
	</g>
</g>
<g>
	<g>
		<path class="st2" d="M1471.8,1400c0,31.9-20.8,58.9-49.6,68.3l431.4-68.3l-431.4-68.3C1451,1341.1,1471.8,1368.1,1471.8,1400z"/>
		<path class="st1" d="M1423,1473.2l-2.3-9.7c27.6-9,46.2-34.5,46.2-63.5c0-29-18.5-54.6-46.2-63.5l2.3-9.7l462.6,73.2L1423,1473.2z
			 M1449.3,1341.1c17.1,14.3,27.5,35.6,27.5,58.9c0,23.3-10.4,44.7-27.5,58.9l372.3-58.9L1449.3,1341.1z"/>
	</g>
	<g>
		<path class="st1" d="M1422.2,1468.3l431.4-68.3h-381.8C1471.8,1431.9,1451,1458.9,1422.2,1468.3z"/>
	</g>
</g>
<g>
	<g>
		<path class="st2" d="M1349.2,1349.2c22.6-22.6,56.4-27,83.4-13.2l-353.4-256.8l256.8,353.4
			C1322.3,1405.6,1326.7,1371.8,1349.2,1349.2z"/>
		<path class="st1" d="M1332,1435.5l-275.3-378.9l378.9,275.3l-5.2,8.5c-25.9-13.2-57-8.2-77.6,12.3c-20.5,20.5-25.5,51.7-12.3,77.6
			L1332,1435.5z M1101.9,1101.9l221.6,304.9c-2-22.2,5.7-44.6,22.2-61.1l0,0c16.5-16.5,38.9-24.2,61.1-22.2L1101.9,1101.9z"/>
	</g>
	<g>
		<path class="st2" d="M1432.6,1336l-353.4-256.8l270,270C1371.8,1326.7,1405.6,1322.3,1432.6,1336z"/>
		<path class="st1" d="M1349.2,1356.3l-273.5-273.5l6.5-7.6l353.4,256.8l-5.2,8.5c-25.9-13.2-57-8.2-77.6,12.3L1349.2,1356.3z
			 M1127.7,1120.7l221.6,221.6c16.1-14.1,36.9-20.7,57.5-18.8L1127.7,1120.7z"/>
	</g>
</g>
<g>
	<g>
		<path class="st2" d="M1450.8,1450.8c-22.6,22.6-56.4,27-83.4,13.2l353.4,256.8L1464,1367.4
			C1477.7,1394.4,1473.3,1428.2,1450.8,1450.8z"/>
		<path class="st1" d="M1743.4,1743.4L1364.5,1468l5.2-8.5c25.9,13.2,57,8.2,77.6-12.3l0,0c20.5-20.5,25.5-51.7,12.3-77.6l8.5-5.2
			L1743.4,1743.4z M1393.2,1476.5l304.9,221.6l-221.6-304.9c2,22.2-5.7,44.6-22.2,61.1l0,0l0,0
			C1437.8,1470.8,1415.4,1478.5,1393.2,1476.5z"/>
	</g>
	<g>
		<path class="st2" d="M1367.4,1464l353.4,256.8l-270-270C1428.2,1473.3,1394.4,1477.7,1367.4,1464z"/>
		<path class="st1" d="M1717.8,1724.8L1364.5,1468l5.2-8.5c25.9,13.2,57,8.2,77.6-12.3l3.5-3.5l3.5,3.5l270,270L1717.8,1724.8z
			 M1393.2,1476.5l279.1,202.8l-221.6-221.6C1434.6,1471.9,1413.8,1478.4,1393.2,1476.5z"/>
	</g>
</g>
<g>
	<g>
		<path class="st2" d="M1349.2,1450.8c-22.6-22.6-27-56.4-13.2-83.4l-256.8,353.4l353.4-256.8
			C1405.6,1477.7,1371.8,1473.3,1349.2,1450.8z"/>
		<path class="st1" d="M1056.6,1743.4l275.3-378.9l8.5,5.2c-13.2,25.9-8.2,57,12.3,77.6l0,0c12.9,12.9,29.9,19.6,47.2,19.6
			c10.3,0,20.7-2.4,30.4-7.3l5.2,8.5L1056.6,1743.4z M1323.5,1393.2l-221.6,304.9l304.9-221.6c-22.2,2-44.6-5.7-61.1-22.2l0,0
			C1329.2,1437.8,1321.5,1415.4,1323.5,1393.2z"/>
	</g>
	<g>
		<path class="st2" d="M1336,1367.4l-256.8,353.4l270-270C1326.7,1428.2,1322.3,1394.4,1336,1367.4z"/>
		<path class="st1" d="M1082.8,1724.3l-7.6-6.5l256.8-353.4l8.5,5.2c-13.2,25.9-8.2,57,12.3,77.6l3.5,3.5L1082.8,1724.3z
			 M1323.5,1393.2l-202.8,279.1l221.6-221.6C1328.1,1434.6,1321.6,1413.8,1323.5,1393.2z"/>
	</g>
</g>
<g>
	<g>
		<path class="st2" d="M1450.8,1349.2c22.6,22.6,27,56.4,13.2,83.4l256.8-353.4L1367.4,1336
			C1394.4,1322.3,1428.2,1326.7,1450.8,1349.2z"/>
		<path class="st1" d="M1468,1435.5l-8.5-5.2c13.2-25.9,8.2-57-12.3-77.6l0,0c-20.5-20.5-51.7-25.5-77.6-12.3l-5.2-8.5l378.9-275.3
			L1468,1435.5z M1454.3,1345.7c16.5,16.5,24.2,38.9,22.2,61.1l221.6-304.9l-304.9,221.6C1415.4,1321.5,1437.8,1329.2,1454.3,1345.7
			L1454.3,1345.7z"/>
	</g>
	<g>
		<path class="st2" d="M1464,1432.6l256.8-353.4l-270,270C1473.3,1371.8,1477.7,1405.6,1464,1432.6z"/>
		<path class="st1" d="M1468,1435.5l-8.5-5.2c13.2-25.9,8.2-57-12.3-77.6l-3.5-3.5l273.5-273.5l7.6,6.5L1468,1435.5z M1457.7,1349.3
			c14.1,16.1,20.7,36.9,18.8,57.5l202.8-279.1L1457.7,1349.3z"/>
	</g>
</g>
<g>
	<g>
		<path class="st3" d="M1400,1440.8c-22.5,0-40.8-18.3-40.8-40.8s18.3-40.8,40.8-40.8s40.8,18.3,40.8,40.8
			S1422.5,1440.8,1400,1440.8z"/>
	</g>
	<g>
		<path class="st1" d="M1400,1369.2c17,0,30.8,13.8,30.8,30.8s-13.8,30.8-30.8,30.8s-30.8-13.8-30.8-30.8S1383,1369.2,1400,1369.2
			 M1400,1349.2c-28,0-50.8,22.7-50.8,50.8s22.7,50.8,50.8,50.8s50.8-22.7,50.8-50.8S1428,1349.2,1400,1349.2L1400,1349.2z"/>
	</g>
</g>
<g>
	<path class="st1" d="M1400,1678.6c-74.4,0-144.4-29-197-81.6c-52.6-52.6-81.6-122.6-81.6-197c0-74.4,29-144.4,81.6-197
		c52.6-52.6,122.6-81.6,197-81.6c74.4,0,144.4,29,197,81.6c52.6,52.6,81.6,122.6,81.6,197c0,74.4-29,144.4-81.6,197
		C1544.4,1649.6,1474.4,1678.6,1400,1678.6z M1400,1131.4c-71.7,0-139.2,27.9-189.9,78.7s-78.7,118.2-78.7,189.9
		c0,71.7,27.9,139.2,78.7,189.9s118.2,78.7,189.9,78.7c71.7,0,139.2-27.9,189.9-78.7s78.7-118.2,78.7-189.9
		c0-71.7-27.9-139.2-78.7-189.9S1471.7,1131.4,1400,1131.4z"/>
</g>
<g>
	<path class="st1" d="M1400,1888.1c-65.9,0-129.8-12.9-190-38.4c-58.1-24.6-110.3-59.8-155.2-104.6c-44.8-44.8-80-97-104.6-155.2
		c-25.5-60.2-38.4-124.1-38.4-190s12.9-129.8,38.4-190c24.6-58.1,59.8-110.3,104.6-155.2s97-80,155.2-104.6
		c60.2-25.5,124.1-38.4,190-38.4s129.8,12.9,190,38.4c58.1,24.6,110.3,59.8,155.2,104.6c44.8,44.8,80,97,104.6,155.2
		c25.5,60.2,38.4,124.1,38.4,190s-12.9,129.8-38.4,190c-24.6,58.1-59.8,110.3-104.6,155.2c-44.8,44.8-97,80-155.2,104.6
		C1529.8,1875.2,1465.9,1888.1,1400,1888.1z M1400,931.9c-63.2,0-124.5,12.4-182.2,36.8C1162,992.2,1112,1026,1069,1069
		c-43,43-76.8,93.1-100.3,148.8c-24.4,57.7-36.8,119-36.8,182.2s12.4,124.5,36.8,182.2C992.2,1638,1026,1688,1069,1731
		c43,43,93.1,76.8,148.8,100.3c57.7,24.4,119,36.8,182.2,36.8s124.5-12.4,182.2-36.8C1638,1807.8,1688,1774,1731,1731
		c43-43,76.8-93.1,100.3-148.8c24.4-57.7,36.8-119,36.8-182.2s-12.4-124.5-36.8-182.2C1807.8,1162,1774,1112,1731,1069
		c-43-43-93.1-76.8-148.8-100.3C1524.5,944.2,1463.2,931.9,1400,931.9z"/>
</g>
<g>
	<g>
		<path class="st1" d="M883.9,983.7C883.9,983.7,883.9,983.7,883.9,983.7c-26.7,0-51.7-10.4-70.6-29.2
			c-22.1-22.1-32.4-52.5-28.4-83.5l9.9,1.3c-3.6,27.9,5.7,55.3,25.5,75.1c17,17,39.5,26.3,63.5,26.3c24,0,46.5-9.3,63.5-26.3
			c17-17,26.3-39.5,26.3-63.5c0-24-9.3-46.5-26.3-63.5c-19.9-19.9-47.2-29.2-75.1-25.5l-1.3-9.9c31-4,61.4,6.3,83.5,28.4
			c18.8,18.8,29.2,43.9,29.2,70.6c0,26.7-10.4,51.7-29.2,70.6C935.6,973.3,910.5,983.7,883.9,983.7z"/>
	</g>
	<g>
		<polygon class="st1" points="779,871.6 789.9,860.7 800.7,871.6 		"/>
		<polygon class="st1" points="812.8,876.6 767,876.6 789.9,853.6 		"/>
	</g>
	<g>
		<polygon class="st1" points="871.6,800.7 860.7,789.9 871.6,779.1 		"/>
		<polygon class="st1" points="876.6,812.8 853.6,789.9 876.6,767 		"/>
	</g>
</g>
<g>
	<polygon class="st1" points="389.7,405 389.7,389.7 405,389.7 	"/>
	<polygon class="st1" points="384.7,417.1 384.7,384.7 417.1,384.7 	"/>
</g>
<g>
	<polygon class="st1" points="2410.3,2395 2410.3,2410.3 2395,2410.3 	"/>
	<polygon class="st1" points="2415.3,2415.3 2382.9,2415.3 2415.3,2382.9 	"/>
</g>
<g>
	<line class="st2" x1="1849.1" y1="1849.1" x2="2402.6" y2="2402.6"/>
	
		<rect x="2120.9" y="1734.5" transform="matrix(0.7071 -0.7071 0.7071 0.7071 -880.5636 2125.8704)" class="st1" width="10" height="782.8"/>
</g>
<g>
	<circle class="st2" cx="2234.6" cy="2234.6" r="30.1"/>
	<path class="st1" d="M2234.6,2269.6c-19.3,0-35.1-15.7-35.1-35.1s15.7-35.1,35.1-35.1s35.1,15.7,35.1,35.1
		S2253.9,2269.6,2234.6,2269.6z M2234.6,2209.5c-13.8,0-25.1,11.2-25.1,25.1s11.2,25.1,25.1,25.1s25.1-11.2,25.1-25.1
		S2248.4,2209.5,2234.6,2209.5z"/>
</g>
<g>
	<g>
		<path class="st1" d="M1915.9,2015.9c-26.3,0-51.4-10.3-70.3-29.2c-18.8-18.8-29.2-43.9-29.2-70.6s10.4-51.7,29.2-70.6
			c18.8-18.8,43.9-29.2,70.6-29.2s51.7,10.4,70.6,29.2c22.1,22.1,32.4,52.5,28.4,83.5l-9.9-1.3c3.6-27.9-5.7-55.3-25.5-75.1
			c-17-17-39.5-26.3-63.5-26.3s-46.5,9.3-63.5,26.3s-26.3,39.5-26.3,63.5s9.3,46.5,26.3,63.5c19.9,19.9,47.3,29.2,75.1,25.5l1.3,9.9
			C1924.7,2015.6,1920.3,2015.9,1915.9,2015.9z"/>
	</g>
	<g>
		<polygon class="st1" points="2021,1928.4 2010.1,1939.3 1999.3,1928.4 		"/>
		<polygon class="st1" points="2010.1,1946.4 1987.2,1923.4 2033,1923.4 		"/>
	</g>
	<g>
		<polygon class="st1" points="1928.4,1999.3 1939.3,2010.1 1928.4,2020.9 		"/>
		<polygon class="st1" points="1923.4,2033 1923.4,1987.2 1946.4,2010.1 		"/>
	</g>
</g>
<g>
	<line class="st2" x1="950.9" y1="950.9" x2="397.4" y2="397.4"/>
	
		<rect x="669.1" y="282.7" transform="matrix(0.7071 -0.7071 0.7071 0.7071 -279.2342 674.1334)" class="st1" width="10" height="782.8"/>
</g>
<g>
	<circle class="st2" cx="565.4" cy="565.4" r="30.1"/>
	<path class="st1" d="M565.4,600.5c-19.3,0-35.1-15.7-35.1-35.1s15.7-35.1,35.1-35.1s35.1,15.7,35.1,35.1S584.8,600.5,565.4,600.5z
		 M565.4,540.4c-13.8,0-25.1,11.2-25.1,25.1s11.2,25.1,25.1,25.1s25.1-11.2,25.1-25.1S579.2,540.4,565.4,540.4z"/>
</g>
<g>
	<g>
		<path class="st1" d="M884.1,2015.9c-4.4,0-8.8-0.3-13.2-0.9l1.3-9.9c27.9,3.6,55.3-5.7,75.1-25.5c17-17,26.3-39.5,26.3-63.5
			c0-24-9.3-46.5-26.3-63.5c-17-17-39.5-26.3-63.5-26.3s-46.5,9.3-63.5,26.3c-19.9,19.9-29.2,47.2-25.5,75.1l-9.9,1.3
			c-4-31,6.3-61.4,28.4-83.5c18.8-18.8,43.9-29.2,70.6-29.2s51.7,10.4,70.6,29.2c18.8,18.8,29.2,43.9,29.2,70.6
			c0,26.7-10.4,51.7-29.2,70.6C935.5,2005.6,910.4,2015.9,884.1,2015.9z"/>
	</g>
	<g>
		<polygon class="st1" points="871.6,2021 860.7,2010.1 871.6,1999.3 		"/>
		<polygon class="st1" points="876.6,2033 853.6,2010.1 876.6,1987.2 		"/>
	</g>
	<g>
		<polygon class="st1" points="800.7,1928.4 789.9,1939.3 779.1,1928.4 		"/>
		<polygon class="st1" points="789.9,1946.4 767,1923.4 812.8,1923.4 		"/>
	</g>
</g>
<g>
	<polygon class="st1" points="405,2410.3 389.7,2410.3 389.7,2395 	"/>
	<polygon class="st1" points="417.1,2415.3 384.7,2415.3 384.7,2382.9 	"/>
</g>
<g>
	<polygon class="st1" points="2395,389.7 2410.3,389.7 2410.3,405 	"/>
	<polygon class="st1" points="2415.3,417.1 2382.9,384.7 2415.3,384.7 	"/>
</g>
<g>
	<line class="st2" x1="1849.1" y1="950.9" x2="2402.6" y2="397.4"/>
	
		<rect x="1734.5" y="669.1" transform="matrix(0.7072 -0.7071 0.7071 0.7072 145.8979 1700.5278)" class="st1" width="782.8" height="10"/>
</g>
<g>
	<circle class="st2" cx="2234.6" cy="565.4" r="30.1"/>
	<path class="st1" d="M2234.6,600.5c-19.3,0-35.1-15.7-35.1-35.1s15.7-35.1,35.1-35.1s35.1,15.7,35.1,35.1
		S2253.9,600.5,2234.6,600.5z M2234.6,540.4c-13.8,0-25.1,11.2-25.1,25.1s11.2,25.1,25.1,25.1s25.1-11.2,25.1-25.1
		S2248.4,540.4,2234.6,540.4z"/>
</g>
<g>
	<g>
		<path class="st1" d="M1916.1,983.7c-26.7,0-51.7-10.4-70.6-29.2c-18.8-18.8-29.2-43.9-29.2-70.6s10.4-51.7,29.2-70.6
			c22.1-22.1,52.5-32.4,83.5-28.4l-1.3,9.9c-27.9-3.6-55.3,5.7-75.1,25.5c-17,17-26.3,39.5-26.3,63.5s9.3,46.5,26.3,63.5
			c17,17,39.5,26.3,63.5,26.3c24,0,46.5-9.3,63.5-26.3c19.9-19.9,29.2-47.2,25.5-75.1l9.9-1.3c4,31-6.3,61.4-28.4,83.5
			C1967.8,973.3,1942.8,983.7,1916.1,983.7z"/>
	</g>
	<g>
		<polygon class="st1" points="1928.4,779 1939.3,789.9 1928.4,800.7 		"/>
		<polygon class="st1" points="1923.4,812.8 1923.4,767 1946.4,789.9 		"/>
	</g>
	<g>
		<polygon class="st1" points="1999.3,871.6 2010.1,860.7 2020.9,871.6 		"/>
		<polygon class="st1" points="2033,876.6 1987.2,876.6 2010.1,853.6 		"/>
	</g>
</g>
<g>
	<line class="st2" x1="950.9" y1="1849.1" x2="397.4" y2="2402.6"/>
	
		<rect x="282.7" y="2120.9" transform="matrix(0.7071 -0.7072 0.7072 0.7071 -1305.8378 1099.4719)" class="st1" width="782.8" height="10"/>
</g>
<g>
	<circle class="st2" cx="565.4" cy="2234.6" r="30.1"/>
	<path class="st1" d="M565.4,2269.6c-19.3,0-35.1-15.7-35.1-35.1s15.7-35.1,35.1-35.1s35.1,15.7,35.1,35.1
		S584.8,2269.6,565.4,2269.6z M565.4,2209.5c-13.8,0-25.1,11.2-25.1,25.1s11.2,25.1,25.1,25.1s25.1-11.2,25.1-25.1
		S579.2,2209.5,565.4,2209.5z"/>
</g>
<g>
	<path class="st2" d="M2147.3,589H652.7c-38.6,0-69.9-31.3-69.9-69.9v-5.5c0-38.6,31.3-69.9,69.9-69.9h1494.6
		c38.6,0,69.9,31.3,69.9,69.9v5.5C2217.2,557.7,2185.9,589,2147.3,589z"/>
	<path class="st1" d="M2147.3,594H652.7c-41.3,0-74.9-33.6-74.9-74.9v-5.5c0-41.3,33.6-74.9,74.9-74.9h1494.6
		c41.3,0,74.9,33.6,74.9,74.9v5.5C2222.2,560.4,2188.6,594,2147.3,594z M652.7,448.8c-35.8,0-64.9,29.1-64.9,64.9v5.5
		c0,35.8,29.1,64.9,64.9,64.9h1494.6c35.8,0,64.9-29.1,64.9-64.9v-5.5c0-35.8-29.1-64.9-64.9-64.9H652.7z"/>
</g>
<g>
	<g>
		<path class="st3" d="M652.7,579c-33,0-59.9-26.9-59.9-59.9v-5.5c0-33,26.9-59.9,59.9-59.9h5.5c33,0,59.9,26.9,59.9,59.9v5.5
			c0,33-26.9,59.9-59.9,59.9H652.7z"/>
	</g>
	<g>
		<path class="st1" d="M658.2,463.8c27.5,0,49.9,22.4,49.9,49.9v5.5c0,27.5-22.4,49.9-49.9,49.9h-5.5c-27.5,0-49.9-22.4-49.9-49.9
			v-5.5c0-27.5,22.4-49.9,49.9-49.9H658.2 M658.2,443.8h-5.5c-38.6,0-69.9,31.3-69.9,69.9v5.5c0,38.6,31.3,69.9,69.9,69.9h5.5
			c38.6,0,69.9-31.3,69.9-69.9v-5.5C728,475.1,696.8,443.8,658.2,443.8L658.2,443.8z"/>
	</g>
</g>
<g>
	<g>
		<path class="st3" d="M2141.8,579c-33,0-59.9-26.9-59.9-59.9v-5.5c0-33,26.9-59.9,59.9-59.9h5.5c33,0,59.9,26.9,59.9,59.9v5.5
			c0,33-26.9,59.9-59.9,59.9H2141.8z"/>
	</g>
	<g>
		<path class="st1" d="M2147.3,463.8c27.5,0,49.9,22.4,49.9,49.9v5.5c0,27.5-22.4,49.9-49.9,49.9h-5.5c-27.5,0-49.9-22.4-49.9-49.9
			v-5.5c0-27.5,22.4-49.9,49.9-49.9H2147.3 M2147.3,443.8h-5.5c-38.6,0-69.9,31.3-69.9,69.9v5.5c0,38.6,31.3,69.9,69.9,69.9h5.5
			c38.6,0,69.9-31.3,69.9-69.9v-5.5C2217.2,475.1,2185.9,443.8,2147.3,443.8L2147.3,443.8z"/>
	</g>
</g>
<g>
	<path class="st2" d="M2147.3,2356.6H652.7c-38.6,0-69.9-31.3-69.9-69.9v-5.5c0-38.6,31.3-69.9,69.9-69.9h1494.6
		c38.6,0,69.9,31.3,69.9,69.9v5.5C2217.2,2325.3,2185.9,2356.6,2147.3,2356.6z"/>
	<path class="st1" d="M2147.3,2361.6H652.7c-41.3,0-74.9-33.6-74.9-74.9v-5.5c0-41.3,33.6-74.9,74.9-74.9h1494.6
		c41.3,0,74.9,33.6,74.9,74.9v5.5C2222.2,2328,2188.6,2361.6,2147.3,2361.6z M652.7,2216.4c-35.8,0-64.9,29.1-64.9,64.9v5.5
		c0,35.8,29.1,64.9,64.9,64.9h1494.6c35.8,0,64.9-29.1,64.9-64.9v-5.5c0-35.8-29.1-64.9-64.9-64.9H652.7z"/>
</g>
<g>
	<g>
		<path class="st3" d="M652.7,2346.6c-33,0-59.9-26.9-59.9-59.9v-5.5c0-33,26.9-59.9,59.9-59.9h5.5c33,0,59.9,26.9,59.9,59.9v5.5
			c0,33-26.9,59.9-59.9,59.9H652.7z"/>
	</g>
	<g>
		<path class="st1" d="M658.2,2231.4c27.5,0,49.9,22.4,49.9,49.9v5.5c0,27.5-22.4,49.9-49.9,49.9h-5.5c-27.5,0-49.9-22.4-49.9-49.9
			v-5.5c0-27.5,22.4-49.9,49.9-49.9H658.2 M658.2,2211.4h-5.5c-38.6,0-69.9,31.3-69.9,69.9v5.5c0,38.6,31.3,69.9,69.9,69.9h5.5
			c38.6,0,69.9-31.3,69.9-69.9v-5.5C728,2242.7,696.8,2211.4,658.2,2211.4L658.2,2211.4z"/>
	</g>
</g>
<g>
	<g>
		<path class="st3" d="M2141.8,2346.6c-33,0-59.9-26.9-59.9-59.9v-5.5c0-33,26.9-59.9,59.9-59.9h5.5c33,0,59.9,26.9,59.9,59.9v5.5
			c0,33-26.9,59.9-59.9,59.9H2141.8z"/>
	</g>
	<g>
		<path class="st1" d="M2147.3,2231.4c27.5,0,49.9,22.4,49.9,49.9v5.5c0,27.5-22.4,49.9-49.9,49.9h-5.5c-27.5,0-49.9-22.4-49.9-49.9
			v-5.5c0-27.5,22.4-49.9,49.9-49.9H2147.3 M2147.3,2211.4h-5.5c-38.6,0-69.9,31.3-69.9,69.9v5.5c0,38.6,31.3,69.9,69.9,69.9h5.5
			c38.6,0,69.9-31.3,69.9-69.9v-5.5C2217.2,2242.7,2185.9,2211.4,2147.3,2211.4L2147.3,2211.4z"/>
	</g>
</g>
<g>
	<path class="st2" d="M588.8,652.9v1494.6c0,38.6-31.3,69.9-69.9,69.9h-5.5c-38.6,0-69.9-31.3-69.9-69.9V652.9
		c0-38.6,31.3-69.9,69.9-69.9h5.5C557.5,583,588.8,614.3,588.8,652.9z"/>
	<path class="st1" d="M518.9,2222.4h-5.5c-41.3,0-74.9-33.6-74.9-74.9V652.9c0-41.3,33.6-74.9,74.9-74.9h5.5
		c41.3,0,74.9,33.6,74.9,74.9v1494.6C593.8,2188.8,560.2,2222.4,518.9,2222.4z M513.4,588c-35.8,0-64.9,29.1-64.9,64.9v1494.6
		c0,35.8,29.1,64.9,64.9,64.9h5.5c35.8,0,64.9-29.1,64.9-64.9V652.9c0-35.8-29.1-64.9-64.9-64.9H513.4z"/>
</g>
<g>
	<g>
		<path class="st3" d="M513.4,2207.4c-33,0-59.9-26.9-59.9-59.9v-5.5c0-33,26.9-59.9,59.9-59.9h5.5c33,0,59.9,26.9,59.9,59.9v5.5
			c0,33-26.9,59.9-59.9,59.9H513.4z"/>
	</g>
	<g>
		<path class="st1" d="M518.9,2092.2c27.5,0,49.9,22.4,49.9,49.9v5.5c0,27.5-22.4,49.9-49.9,49.9h-5.5c-27.5,0-49.9-22.4-49.9-49.9
			v-5.5c0-27.5,22.4-49.9,49.9-49.9H518.9 M518.9,2072.2h-5.5c-38.6,0-69.9,31.3-69.9,69.9v5.5c0,38.6,31.3,69.9,69.9,69.9h5.5
			c38.6,0,69.9-31.3,69.9-69.9v-5.5C588.8,2103.5,557.5,2072.2,518.9,2072.2L518.9,2072.2z"/>
	</g>
</g>
<g>
	<g>
		<path class="st3" d="M513.4,718.2c-33,0-59.9-26.9-59.9-59.9v-5.5c0-33,26.9-59.9,59.9-59.9h5.5c33,0,59.9,26.9,59.9,59.9v5.5
			c0,33-26.9,59.9-59.9,59.9H513.4z"/>
	</g>
	<g>
		<path class="st1" d="M518.9,603c27.5,0,49.9,22.4,49.9,49.9v5.5c0,27.5-22.4,49.9-49.9,49.9h-5.5c-27.5,0-49.9-22.4-49.9-49.9
			v-5.5c0-27.5,22.4-49.9,49.9-49.9H518.9 M518.9,583h-5.5c-38.6,0-69.9,31.3-69.9,69.9v5.5c0,38.6,31.3,69.9,69.9,69.9h5.5
			c38.6,0,69.9-31.3,69.9-69.9v-5.5C588.8,614.3,557.5,583,518.9,583L518.9,583z"/>
	</g>
</g>
<g>
	<path class="st2" d="M2356.4,652.9v1494.6c0,38.6-31.3,69.9-69.9,69.9h-5.5c-38.6,0-69.9-31.3-69.9-69.9V652.9
		c0-38.6,31.3-69.9,69.9-69.9h5.5C2325.1,583,2356.4,614.3,2356.4,652.9z"/>
	<path class="st1" d="M2286.6,2222.4h-5.5c-41.3,0-74.9-33.6-74.9-74.9V652.9c0-41.3,33.6-74.9,74.9-74.9h5.5
		c41.3,0,74.9,33.6,74.9,74.9v1494.6C2361.4,2188.8,2327.8,2222.4,2286.6,2222.4z M2281.1,588c-35.8,0-64.9,29.1-64.9,64.9v1494.6
		c0,35.8,29.1,64.9,64.9,64.9h5.5c35.8,0,64.9-29.1,64.9-64.9V652.9c0-35.8-29.1-64.9-64.9-64.9H2281.1z"/>
</g>
<g>
	<g>
		<path class="st3" d="M2281.1,2207.4c-33,0-59.9-26.9-59.9-59.9v-5.5c0-33,26.9-59.9,59.9-59.9h5.5c33,0,59.9,26.9,59.9,59.9v5.5
			c0,33-26.9,59.9-59.9,59.9H2281.1z"/>
	</g>
	<g>
		<path class="st1" d="M2286.6,2092.2c27.5,0,49.9,22.4,49.9,49.9v5.5c0,27.5-22.4,49.9-49.9,49.9h-5.5c-27.5,0-49.9-22.4-49.9-49.9
			v-5.5c0-27.5,22.4-49.9,49.9-49.9H2286.6 M2286.6,2072.2h-5.5c-38.6,0-69.9,31.3-69.9,69.9v5.5c0,38.6,31.3,69.9,69.9,69.9h5.5
			c38.6,0,69.9-31.3,69.9-69.9v-5.5C2356.4,2103.5,2325.1,2072.2,2286.6,2072.2L2286.6,2072.2z"/>
	</g>
</g>
<g>
	<g>
		<path class="st3" d="M2281.1,718.2c-33,0-59.9-26.9-59.9-59.9v-5.5c0-33,26.9-59.9,59.9-59.9h5.5c33,0,59.9,26.9,59.9,59.9v5.5
			c0,33-26.9,59.9-59.9,59.9H2281.1z"/>
	</g>
	<g>
		<path class="st1" d="M2286.6,603c27.5,0,49.9,22.4,49.9,49.9v5.5c0,27.5-22.4,49.9-49.9,49.9h-5.5c-27.5,0-49.9-22.4-49.9-49.9
			v-5.5c0-27.5,22.4-49.9,49.9-49.9H2286.6 M2286.6,583h-5.5c-38.6,0-69.9,31.3-69.9,69.9v5.5c0,38.6,31.3,69.9,69.9,69.9h5.5
			c38.6,0,69.9-31.3,69.9-69.9v-5.5C2356.4,614.3,2325.1,583,2286.6,583L2286.6,583z"/>
	</g>
</g>
<g>
	<path class="st1" d="M175.2,115.7c-15.2,0-30.5,5.8-42.1,17.4c-23.3,23.3-23.3,60.9,0,84.2c11.6,11.6,26.9,17.4,42.1,17.4
		s30.5-5.8,42.1-17.4c23.3-23.3,23.3-60.9,0-84.2C205.6,121.6,190.4,115.7,175.2,115.7L175.2,115.7z"/>
</g>
<g>
	<path class="st1" d="M2624.8,2510.7c30.4,0,59.1,11.9,80.6,33.4c21.5,21.5,33.4,50.1,33.4,80.6s-11.9,59.1-33.4,80.6
		c-21.5,21.5-50.1,33.4-80.6,33.4s-59.1-11.9-80.6-33.4c-21.5-21.5-33.4-50.1-33.4-80.6c0-30.4,11.9-59.1,33.4-80.6
		C2565.8,2522.6,2594.4,2510.7,2624.8,2510.7 M2624.8,2490.7c-34.3,0-68.6,13.1-94.7,39.2c-52.3,52.3-52.3,137.1,0,189.5
		c26.2,26.2,60.4,39.2,94.7,39.2c34.3,0,68.6-13.1,94.7-39.2c52.3-52.3,52.3-137.1,0-189.5
		C2693.4,2503.8,2659.1,2490.7,2624.8,2490.7L2624.8,2490.7z"/>
</g>
<g>
	<path class="st1" d="M2624.8,2565.2c-15.2,0-30.5,5.8-42.1,17.4c-23.3,23.3-23.3,60.9,0,84.2c11.6,11.6,26.9,17.4,42.1,17.4
		s30.5-5.8,42.1-17.4c23.3-23.3,23.3-60.9,0-84.2C2655.3,2571,2640.1,2565.2,2624.8,2565.2L2624.8,2565.2z"/>
</g>
<g>
	<path class="st1" d="M175.3,2510.9c30.4,0,59.1,11.9,80.6,33.4c21.5,21.5,33.4,50.1,33.4,80.6s-11.9,59.1-33.4,80.6
		c-21.5,21.5-50.1,33.4-80.6,33.4c-30.4,0-59.1-11.9-80.6-33.4c-21.5-21.5-33.4-50.1-33.4-80.6s11.9-59.1,33.4-80.6
		C116.2,2522.7,144.8,2510.9,175.3,2510.9 M175.3,2490.9c-34.3,0-68.6,13.1-94.7,39.2c-52.3,52.3-52.3,137.1,0,189.5
		c26.2,26.2,60.4,39.2,94.7,39.2s68.6-13.1,94.7-39.2c52.3-52.3,52.3-137.1,0-189.5C243.9,2503.9,209.6,2490.9,175.3,2490.9
		L175.3,2490.9z"/>
</g>
<g>
	<path class="st1" d="M175.3,2565.3c-15.2,0-30.5,5.8-42.1,17.4c-23.3,23.3-23.3,60.9,0,84.2c11.6,11.6,26.9,17.4,42.1,17.4
		s30.5-5.8,42.1-17.4c23.3-23.3,23.3-60.9,0-84.2C205.8,2571.1,190.5,2565.3,175.3,2565.3L175.3,2565.3z"/>
</g>
<g>
	<path class="st1" d="M2624.7,61.2c30.4,0,59.1,11.9,80.6,33.4c21.5,21.5,33.4,50.1,33.4,80.6s-11.9,59.1-33.4,80.6
		c-21.5,21.5-50.1,33.4-80.6,33.4c-30.4,0-59.1-11.9-80.6-33.4c-21.5-21.5-33.4-50.1-33.4-80.6s11.9-59.1,33.4-80.6
		C2565.7,73.1,2594.3,61.2,2624.7,61.2 M2624.7,41.2c-34.3,0-68.6,13.1-94.7,39.2c-52.3,52.3-52.3,137.1,0,189.5
		c26.2,26.2,60.4,39.2,94.7,39.2c34.3,0,68.6-13.1,94.7-39.2c52.3-52.3,52.3-137.1,0-189.5C2693.3,54.3,2659,41.2,2624.7,41.2
		L2624.7,41.2z"/>
</g>
<g>
	<path class="st1" d="M2624.7,115.6c-15.2,0-30.5,5.8-42.1,17.4c-23.3,23.3-23.3,60.9,0,84.2c11.6,11.6,26.9,17.4,42.1,17.4
		s30.5-5.8,42.1-17.4c23.3-23.3,23.3-60.9,0-84.2C2655.2,121.4,2640,115.6,2624.7,115.6L2624.7,115.6z"/>
</g>
<g>
	<path class="st4" d="M2700,100v2600H100V100H2700 M2800,0H0v2800h2800V0L2800,0z"/>
</g>
<g>
	<g>
		<polygon class="st1" points="1298.5,483 1278.2,483 1257.9,549.8 1278.2,549.8 1298.5,483 		"/>
	</g>
	<g>
		<polygon class="st1" points="1339.1,483 1318.8,483 1298.5,549.8 1318.8,549.8 1339.1,483 		"/>
	</g>
	<g>
		<polygon class="st1" points="1379.7,483 1359.4,483 1339.1,549.8 1359.4,549.8 1379.7,483 		"/>
	</g>
	<g>
		<polygon class="st1" points="1420.3,483 1400,483 1379.7,549.8 1400,549.8 1420.3,483 		"/>
	</g>
	<g>
		<polygon class="st1" points="1460.9,483 1440.6,483 1420.3,549.8 1440.6,549.8 1460.9,483 		"/>
	</g>
	<g>
		<polygon class="st1" points="1501.5,483 1481.2,483 1460.9,549.8 1481.2,549.8 1501.5,483 		"/>
	</g>
	<g>
		<polygon class="st1" points="1542.1,483 1521.8,483 1501.5,549.8 1521.8,549.8 1542.1,483 		"/>
	</g>
</g>
<g>
	<g>
		<polygon class="st1" points="1542.1,2250.6 1521.8,2250.6 1501.5,2317.5 1521.8,2317.5 1542.1,2250.6 		"/>
	</g>
	<g>
		<polygon class="st1" points="1501.5,2250.6 1481.2,2250.6 1460.9,2317.5 1481.2,2317.5 1501.5,2250.6 		"/>
	</g>
	<g>
		<polygon class="st1" points="1460.9,2250.6 1440.6,2250.6 1420.3,2317.5 1440.6,2317.5 1460.9,2250.6 		"/>
	</g>
	<g>
		<polygon class="st1" points="1420.3,2250.6 1400,2250.6 1379.7,2317.5 1400,2317.5 1420.3,2250.6 		"/>
	</g>
	<g>
		<polygon class="st1" points="1379.7,2250.6 1359.4,2250.6 1339.1,2317.5 1359.4,2317.5 1379.7,2250.6 		"/>
	</g>
	<g>
		<polygon class="st1" points="1339.1,2250.6 1318.8,2250.6 1298.5,2317.5 1318.8,2317.5 1339.1,2250.6 		"/>
	</g>
	<g>
		<polygon class="st1" points="1298.5,2250.6 1278.2,2250.6 1257.9,2317.5 1278.2,2317.5 1298.5,2250.6 		"/>
	</g>
</g>
<g>
	<g>
		<polygon class="st1" points="482.8,1501.7 482.8,1522 549.6,1542.3 549.6,1522 482.8,1501.7 		"/>
	</g>
	<g>
		<polygon class="st1" points="482.8,1461.1 482.8,1481.4 549.6,1501.7 549.6,1481.4 482.8,1461.1 		"/>
	</g>
	<g>
		<polygon class="st1" points="482.8,1420.5 482.8,1440.8 549.6,1461.1 549.6,1440.8 482.8,1420.5 		"/>
	</g>
	<g>
		<polygon class="st1" points="482.8,1379.9 482.8,1400.2 549.6,1420.5 549.6,1400.2 482.8,1379.9 		"/>
	</g>
	<g>
		<polygon class="st1" points="482.8,1339.3 482.8,1359.6 549.6,1379.9 549.6,1359.6 482.8,1339.3 		"/>
	</g>
	<g>
		<polygon class="st1" points="482.8,1298.7 482.8,1319 549.6,1339.3 549.6,1319 482.8,1298.7 		"/>
	</g>
	<g>
		<polygon class="st1" points="482.8,1258.1 482.8,1278.4 549.6,1298.7 549.6,1278.4 482.8,1258.1 		"/>
	</g>
</g>
<g>
	<g>
		<polygon class="st1" points="2250.4,1258.1 2250.4,1278.4 2317.2,1298.7 2317.2,1278.4 2250.4,1258.1 		"/>
	</g>
	<g>
		<polygon class="st1" points="2250.4,1298.7 2250.4,1319 2317.2,1339.3 2317.2,1319 2250.4,1298.7 		"/>
	</g>
	<g>
		<polygon class="st1" points="2250.4,1339.3 2250.4,1359.6 2317.2,1379.9 2317.2,1359.6 2250.4,1339.3 		"/>
	</g>
	<g>
		<polygon class="st1" points="2250.4,1379.9 2250.4,1400.2 2317.2,1420.5 2317.2,1400.2 2250.4,1379.9 		"/>
	</g>
	<g>
		<polygon class="st1" points="2250.4,1420.5 2250.4,1440.8 2317.2,1461.1 2317.2,1440.8 2250.4,1420.5 		"/>
	</g>
	<g>
		<polygon class="st1" points="2250.4,1461.1 2250.4,1481.4 2317.2,1501.7 2317.2,1481.4 2250.4,1461.1 		"/>
	</g>
	<g>
		<polygon class="st1" points="2250.4,1501.7 2250.4,1522 2317.2,1542.3 2317.2,1522 2250.4,1501.7 		"/>
	</g>
</g>
<g>
	<path class="st3" d="M1694.7,322c-22.3,0-40.5-18.2-40.5-40.5c0-11.3-9.2-20.5-20.5-20.5s-20.5,9.2-20.5,20.5
		c0,22.3-18.2,40.5-40.5,40.5s-40.5-18.2-40.5-40.5c0-11.3-9.2-20.5-20.5-20.5s-20.5,9.2-20.5,20.5c0,22.3-18.2,40.5-40.5,40.5
		s-40.5-18.2-40.5-40.5c0-11.3-9.2-20.5-20.5-20.5s-20.5,9.2-20.5,20.5c0,22.3-18.2,40.5-40.5,40.5s-40.5-18.2-40.5-40.5
		c0-11.3-9.2-20.5-20.5-20.5s-20.5,9.2-20.5,20.5c0,22.3-18.2,40.5-40.5,40.5s-40.5-18.2-40.5-40.5c0-11.3-9.2-20.5-20.5-20.5
		s-20.5,9.2-20.5,20.5c0,22.3-18.2,40.5-40.5,40.5s-40.5-18.2-40.5-40.5c0-11.3-9.2-20.5-20.5-20.5s-20.5,9.2-20.5,20.5
		c0,5.5-4.5,10-10,10s-10-4.5-10-10c0-22.3,18.2-40.5,40.5-40.5s40.5,18.2,40.5,40.5c0,11.3,9.2,20.5,20.5,20.5
		c11.3,0,20.5-9.2,20.5-20.5c0-22.3,18.2-40.5,40.5-40.5s40.5,18.2,40.5,40.5c0,11.3,9.2,20.5,20.5,20.5s20.5-9.2,20.5-20.5
		c0-22.3,18.2-40.5,40.5-40.5s40.5,18.2,40.5,40.5c0,11.3,9.2,20.5,20.5,20.5s20.5-9.2,20.5-20.5c0-22.3,18.2-40.5,40.5-40.5
		c22.3,0,40.5,18.2,40.5,40.5c0,11.3,9.2,20.5,20.5,20.5s20.5-9.2,20.5-20.5c0-22.3,18.2-40.5,40.5-40.5s40.5,18.2,40.5,40.5
		c0,11.3,9.2,20.5,20.5,20.5s20.5-9.2,20.5-20.5c0-22.3,18.2-40.5,40.5-40.5s40.5,18.2,40.5,40.5c0,11.3,9.2,20.5,20.5,20.5
		s20.5-9.2,20.5-20.5c0-22.3,18.2-40.5,40.5-40.5s40.5,18.2,40.5,40.5c0,5.5-4.5,10-10,10s-10-4.5-10-10c0-11.3-9.2-20.5-20.5-20.5
		s-20.5,9.2-20.5,20.5C1735.2,303.8,1717,322,1694.7,322z"/>
</g>
<g>
	<path class="st3" d="M1776.5,2559c-22.3,0-40.5-18.2-40.5-40.5c0-11.3-9.2-20.5-20.5-20.5s-20.5,9.2-20.5,20.5
		c0,22.3-18.2,40.5-40.5,40.5s-40.5-18.2-40.5-40.5c0-11.3-9.2-20.5-20.5-20.5s-20.5,9.2-20.5,20.5c0,22.3-18.2,40.5-40.5,40.5
		s-40.5-18.2-40.5-40.5c0-11.3-9.2-20.5-20.5-20.5s-20.5,9.2-20.5,20.5c0,22.3-18.2,40.5-40.5,40.5c-22.3,0-40.5-18.2-40.5-40.5
		c0-11.3-9.2-20.5-20.5-20.5s-20.5,9.2-20.5,20.5c0,22.3-18.2,40.5-40.5,40.5s-40.5-18.2-40.5-40.5c0-11.3-9.2-20.5-20.5-20.5
		s-20.5,9.2-20.5,20.5c0,22.3-18.2,40.5-40.5,40.5s-40.5-18.2-40.5-40.5c0-11.3-9.2-20.5-20.5-20.5s-20.5,9.2-20.5,20.5
		c0,22.3-18.2,40.5-40.5,40.5s-40.5-18.2-40.5-40.5c0-5.5,4.5-10,10-10s10,4.5,10,10c0,11.3,9.2,20.5,20.5,20.5s20.5-9.2,20.5-20.5
		c0-22.3,18.2-40.5,40.5-40.5s40.5,18.2,40.5,40.5c0,11.3,9.2,20.5,20.5,20.5s20.5-9.2,20.5-20.5c0-22.3,18.2-40.5,40.5-40.5
		s40.5,18.2,40.5,40.5c0,11.3,9.2,20.5,20.5,20.5s20.5-9.2,20.5-20.5c0-22.3,18.2-40.5,40.5-40.5s40.5,18.2,40.5,40.5
		c0,11.3,9.2,20.5,20.5,20.5s20.5-9.2,20.5-20.5c0-22.3,18.2-40.5,40.5-40.5s40.5,18.2,40.5,40.5c0,11.3,9.2,20.5,20.5,20.5
		s20.5-9.2,20.5-20.5c0-22.3,18.2-40.5,40.5-40.5s40.5,18.2,40.5,40.5c0,11.3,9.2,20.5,20.5,20.5s20.5-9.2,20.5-20.5
		c0-22.3,18.2-40.5,40.5-40.5s40.5,18.2,40.5,40.5c0,11.3,9.2,20.5,20.5,20.5s20.5-9.2,20.5-20.5c0-5.5,4.5-10,10-10s10,4.5,10,10
		C1817,2540.9,1798.8,2559,1776.5,2559z"/>
</g>
<g>
	<path class="st3" d="M281.5,1817c-22.3,0-40.5-18.2-40.5-40.5s18.2-40.5,40.5-40.5c11.3,0,20.5-9.2,20.5-20.5s-9.2-20.5-20.5-20.5
		c-22.3,0-40.5-18.2-40.5-40.5s18.2-40.5,40.5-40.5c11.3,0,20.5-9.2,20.5-20.5s-9.2-20.5-20.5-20.5c-22.3,0-40.5-18.2-40.5-40.5
		s18.2-40.5,40.5-40.5c11.3,0,20.5-9.2,20.5-20.5s-9.2-20.5-20.5-20.5c-22.3,0-40.5-18.2-40.5-40.5c0-22.3,18.2-40.5,40.5-40.5
		c11.3,0,20.5-9.2,20.5-20.5s-9.2-20.5-20.5-20.5c-22.3,0-40.5-18.2-40.5-40.5s18.2-40.5,40.5-40.5c11.3,0,20.5-9.2,20.5-20.5
		s-9.2-20.5-20.5-20.5c-22.3,0-40.5-18.2-40.5-40.5s18.2-40.5,40.5-40.5c11.3,0,20.5-9.2,20.5-20.5s-9.2-20.5-20.5-20.5
		c-22.3,0-40.5-18.2-40.5-40.5s18.2-40.5,40.5-40.5c5.5,0,10,4.5,10,10s-4.5,10-10,10c-11.3,0-20.5,9.2-20.5,20.5
		s9.2,20.5,20.5,20.5c22.3,0,40.5,18.2,40.5,40.5s-18.2,40.5-40.5,40.5c-11.3,0-20.5,9.2-20.5,20.5s9.2,20.5,20.5,20.5
		c22.3,0,40.5,18.2,40.5,40.5s-18.2,40.5-40.5,40.5c-11.3,0-20.5,9.2-20.5,20.5s9.2,20.5,20.5,20.5c22.3,0,40.5,18.2,40.5,40.5
		s-18.2,40.5-40.5,40.5c-11.3,0-20.5,9.2-20.5,20.5s9.2,20.5,20.5,20.5c22.3,0,40.5,18.2,40.5,40.5s-18.2,40.5-40.5,40.5
		c-11.3,0-20.5,9.2-20.5,20.5s9.2,20.5,20.5,20.5c22.3,0,40.5,18.2,40.5,40.5s-18.2,40.5-40.5,40.5c-11.3,0-20.5,9.2-20.5,20.5
		s9.2,20.5,20.5,20.5c22.3,0,40.5,18.2,40.5,40.5s-18.2,40.5-40.5,40.5c-11.3,0-20.5,9.2-20.5,20.5s9.2,20.5,20.5,20.5
		c5.5,0,10,4.5,10,10S287,1817,281.5,1817z"/>
</g>
<g>
	<path class="st3" d="M2518.5,1796.2c-5.5,0-10-4.5-10-10s4.5-10,10-10c11.3,0,20.5-9.2,20.5-20.5s-9.2-20.5-20.5-20.5
		c-22.3,0-40.5-18.2-40.5-40.5s18.2-40.5,40.5-40.5c11.3,0,20.5-9.2,20.5-20.5s-9.2-20.5-20.5-20.5c-22.3,0-40.5-18.2-40.5-40.5
		s18.2-40.5,40.5-40.5c11.3,0,20.5-9.2,20.5-20.5s-9.2-20.5-20.5-20.5c-22.3,0-40.5-18.2-40.5-40.5s18.2-40.5,40.5-40.5
		c11.3,0,20.5-9.2,20.5-20.5s-9.2-20.5-20.5-20.5c-22.3,0-40.5-18.2-40.5-40.5s18.2-40.5,40.5-40.5c11.3,0,20.5-9.2,20.5-20.5
		s-9.2-20.5-20.5-20.5c-22.3,0-40.5-18.2-40.5-40.5s18.2-40.5,40.5-40.5c11.3,0,20.5-9.2,20.5-20.5s-9.2-20.5-20.5-20.5
		c-22.3,0-40.5-18.2-40.5-40.5s18.2-40.5,40.5-40.5c11.3,0,20.5-9.2,20.5-20.5s-9.2-20.5-20.5-20.5c-5.5,0-10-4.5-10-10
		s4.5-10,10-10c22.3,0,40.5,18.2,40.5,40.5s-18.2,40.5-40.5,40.5c-11.3,0-20.5,9.2-20.5,20.5c0,11.3,9.2,20.5,20.5,20.5
		c22.3,0,40.5,18.2,40.5,40.5s-18.2,40.5-40.5,40.5c-11.3,0-20.5,9.2-20.5,20.5s9.2,20.5,20.5,20.5c22.3,0,40.5,18.2,40.5,40.5
		s-18.2,40.5-40.5,40.5c-11.3,0-20.5,9.2-20.5,20.5s9.2,20.5,20.5,20.5c22.3,0,40.5,18.2,40.5,40.5c0,22.3-18.2,40.5-40.5,40.5
		c-11.3,0-20.5,9.2-20.5,20.5s9.2,20.5,20.5,20.5c22.3,0,40.5,18.2,40.5,40.5s-18.2,40.5-40.5,40.5c-11.3,0-20.5,9.2-20.5,20.5
		s9.2,20.5,20.5,20.5c22.3,0,40.5,18.2,40.5,40.5s-18.2,40.5-40.5,40.5c-11.3,0-20.5,9.2-20.5,20.5s9.2,20.5,20.5,20.5
		c22.3,0,40.5,18.2,40.5,40.5S2540.9,1796.2,2518.5,1796.2z"/>
</g>
</svg>
